# xmcd
#
# Track frame offsets: 
#        182
#        19330
#        34902
#        53422
#        69937
#        86700
#        104480
#        123285
#        140822
#
# Disc length: 2093 seconds
#
# Revision: 3
# Processed by: cddbd v1.5.2PL0 Copyright (c) Steve Scherf et al.
# Submitted via: ExactAudioCopy v1.0b6
#
DISCID=79082b09
DTITLE=Otis Clay - Watch Me Now
DYEAR=1989
DGENRE=Blues
TTITLE0=Two Wrongs (Don't Make A Right)
TTITLE1=Soap Opera Blues
TTITLE2=I Don't Understand It
TTITLE3=Feeling Single Seeing Double
TTITLE4=I Know I'm Over You
TTITLE5=I Do Don't You
TTITLE6=You Are My Life
TTITLE7=All I Wanna Do
TTITLE8=Nobody's On The Phone
EXTD=
EXTT0=
EXTT1=
EXTT2=
EXTT3=
EXTT4=
EXTT5=
EXTT6=
EXTT7=
EXTT8=
PLAYORDER=
